<?xml version="1.0" encoding="UTF-8" standalone="no"?>
<!-- Created with Inkscape (http://www.inkscape.org/) -->

<svg
   width="1000"
   height="1000"
   viewBox="0 0 264.58333 264.58333"
   version="1.1"
   id="svg5"
   inkscape:version="1.2.1 (9c6d41e410, 2022-07-14)"
   sodipodi:docname="logo.svg"
   inkscape:export-filename="..\..\..\..\chrome-extension-werkzeugbox\src\static\icon.png"
   inkscape:export-xdpi="49.150002"
   inkscape:export-ydpi="49.150002"
   xmlns:inkscape="http://www.inkscape.org/namespaces/inkscape"
   xmlns:sodipodi="http://sodipodi.sourceforge.net/DTD/sodipodi-0.dtd"
   xmlns="http://www.w3.org/2000/svg"
   xmlns:svg="http://www.w3.org/2000/svg">
  <sodipodi:namedview
     id="namedview7"
     pagecolor="#ffffff"
     bordercolor="#000000"
     borderopacity="0.25"
     inkscape:showpageshadow="2"
     inkscape:pageopacity="0.0"
     inkscape:pagecheckerboard="0"
     inkscape:deskcolor="#d1d1d1"
     inkscape:document-units="mm"
     showgrid="false"
     inkscape:zoom="1.1789508"
     inkscape:cx="560.66801"
     inkscape:cy="592.90006"
     inkscape:window-width="3840"
     inkscape:window-height="2276"
     inkscape:window-x="-12"
     inkscape:window-y="-12"
     inkscape:window-maximized="1"
     inkscape:current-layer="layer1" />
  <defs
     id="defs2" />
  <g
     inkscape:label="Ebene 1"
     inkscape:groupmode="layer"
     id="layer1">
    <circle
       style="fill:#000000;stroke-width:0.132291"
       id="path111"
       cx="132.29167"
       cy="132.29167"
       r="132.29167" />
    <circle
       style="fill:#ffffff;fill-opacity:1;stroke-width:0.11377"
       id="path111-2"
       cx="132.29167"
       cy="132.29167"
       r="113.77084" />
    <rect
       style="fill:#000000;fill-opacity:1;stroke-width:0.260471"
       id="rect978"
       width="179.91667"
       height="179.91667"
       x="42.333332"
       y="42.333332" />
    <rect
       style="fill:#ffffff;fill-opacity:1;stroke-width:0.218336"
       id="rect978-5"
       width="150.8125"
       height="150.8125"
       x="56.885418"
       y="56.885418" />
    <path
       d="m 93.655356,81.168167 -7.991801,16.853088 h -2.77493 L 71.529901,71.844396 h 6.826333 l 6.08635,14.281653 6.641336,-14.281653 h 5.179872 l 6.641338,14.281653 6.04936,-14.281653 h 6.82633 l -11.32173,26.176859 h -2.77493 z"
       id="path403"
       style="font-weight:bold;font-size:50.8px;font-family:'Gill Sans MT';-inkscape-font-specification:'Gill Sans MT, Bold';stroke-width:0.197328" />
    <path
       d="m 137.79528,92.952382 v 4.735885 H 118.74075 V 71.844396 h 18.79554 v 4.735885 h -12.3577 v 5.420365 h 11.78421 v 4.735884 h -11.78421 v 6.215852 z"
       id="path405"
       style="font-weight:bold;font-size:50.8px;font-family:'Gill Sans MT';-inkscape-font-specification:'Gill Sans MT, Bold';stroke-width:0.197328" />
    <path
       d="m 142.71616,71.844396 h 11.54372 q 3.75541,0 6.10485,2.182945 2.34944,2.164448 2.34944,5.25387 0,4.273394 -4.43989,6.326844 1.96095,0.869486 3.69991,4.754388 1.75746,3.884901 3.38542,7.325824 h -7.08533 q -0.62898,-1.276474 -2.20144,-4.865387 -1.55396,-3.588913 -2.68244,-4.606382 -1.10997,-1.017477 -2.38644,-1.017477 h -1.84995 v 10.489246 h -6.43785 z m 6.43785,4.735885 v 5.882856 h 3.40391 q 1.62796,0 2.57144,-0.75848 0.96197,-0.776984 0.96197,-2.201448 0,-2.922928 -3.68141,-2.922928 z"
       id="path407"
       style="font-weight:bold;font-size:50.8px;font-family:'Gill Sans MT';-inkscape-font-specification:'Gill Sans MT, Bold';stroke-width:0.197328" />
    <path
       d="m 190.05651,71.844396 -8.4173,12.1357 11.41422,13.708171 h -8.0658 L 174.75738,85.571063 v 12.117204 h -6.43785 V 71.844396 h 6.43785 v 11.636217 l 8.2138,-11.636217 z"
       id="path409"
       style="font-weight:bold;font-size:50.8px;font-family:'Gill Sans MT';-inkscape-font-specification:'Gill Sans MT, Bold';stroke-width:0.197328" />
    <path
       d="m 102.56289,119.20324 -14.096652,21.10798 h 14.096652 v 4.73588 H 77.477502 L 91.685155,123.93912 H 78.457979 v -4.73588 z"
       id="path411"
       style="font-weight:bold;font-size:50.8px;font-family:'Gill Sans MT';-inkscape-font-specification:'Gill Sans MT, Bold';stroke-width:0.197328" />
    <path
       d="m 125.79833,140.31122 v 4.73588 h -19.05454 v -25.84386 h 18.79554 v 4.73588 h -12.3577 v 5.42037 h 11.78422 v 4.73588 h -11.78422 v 6.21585 z"
       id="path413"
       style="font-weight:bold;font-size:50.8px;font-family:'Gill Sans MT';-inkscape-font-specification:'Gill Sans MT, Bold';stroke-width:0.197328" />
    <path
       d="m 149.88474,119.20324 h 6.43784 v 14.67014 q 0,5.66086 -3.34842,8.58379 -3.34841,2.92293 -9.56427,2.92293 -6.14185,0 -9.54576,-2.95993 -3.38542,-2.95993 -3.38542,-8.50979 v -14.70714 h 6.45634 v 14.85513 q 0,2.70094 1.75746,4.3289 1.77595,1.62796 4.64339,1.62796 2.97843,0 4.75438,-1.66496 1.79446,-1.66496 1.79446,-4.73588 z"
       id="path415"
       style="font-weight:bold;font-size:50.8px;font-family:'Gill Sans MT';-inkscape-font-specification:'Gill Sans MT, Bold';stroke-width:0.197328" />
    <path
       d="m 186.56934,120.99769 v 5.64237 q -4.93938,-2.38644 -9.65676,-2.38644 -4.5509,0 -7.01133,2.29394 -2.46044,2.29394 -2.46044,5.84586 0,3.40391 2.46044,5.51286 2.46043,2.10895 6.47484,2.10895 2.12745,0 4.27339,-0.92497 v -3.01544 h -3.7369 v -4.73588 h 10.19325 v 10.56325 q -1.53547,1.53546 -4.68039,2.51594 -3.12642,0.96197 -6.19735,0.96197 -6.75233,0 -11.09973,-3.71841 -4.32889,-3.73691 -4.32889,-9.49027 0,-5.88286 4.32889,-9.58277 4.3474,-3.71841 11.24773,-3.71841 5.69786,0 10.19325,2.12745 z"
       id="path417"
       style="font-weight:bold;font-size:50.8px;font-family:'Gill Sans MT';-inkscape-font-specification:'Gill Sans MT, Bold';stroke-width:0.197328" />
    <path
       d="m 90.140446,166.56208 h 11.173724 q 3.9959,0 6.27135,1.92395 2.29394,1.92396 2.29394,4.5509 0,3.36691 -3.53341,5.16136 2.66393,0.70299 4.0699,2.47895 1.42447,1.77595 1.42447,4.14389 0,3.36693 -2.31245,5.47587 -2.31245,2.10895 -6.80783,2.10895 H 90.140446 Z m 6.437842,4.73589 v 5.53136 h 3.366915 q 1.553967,0 2.423447,-0.79548 0.86948,-0.79548 0.86948,-1.99795 0,-1.18397 -0.86948,-1.96096 -0.86948,-0.77697 -2.423447,-0.77697 z m 0,10.26725 v 6.10484 h 3.625912 q 2.57144,0 3.69991,-0.70297 1.12847,-0.72149 1.12847,-2.47894 0,-1.35047 -1.07297,-2.12745 -1.07298,-0.79548 -2.86744,-0.79548 z"
       id="path419"
       style="font-weight:bold;font-size:50.8px;font-family:'Gill Sans MT';-inkscape-font-specification:'Gill Sans MT, Bold';stroke-width:0.197328" />
    <path
       d="m 130.30296,166.22909 q 6.60435,0 10.69274,3.9959 4.08841,3.9774 4.08841,9.26827 0,5.36487 -4.1439,9.30528 -4.1439,3.9404 -10.63725,3.9404 -6.56733,0 -10.69273,-3.92191 -4.1254,-3.9219 -4.1254,-9.32377 0,-5.30936 4.0884,-9.28677 4.1069,-3.9774 10.72973,-3.9774 z m 0,21.14498 q 3.66292,0 5.90136,-2.16444 2.23845,-2.18295 2.23845,-5.71637 0,-3.55191 -2.23845,-5.71636 -2.23844,-2.16444 -5.90136,-2.16444 -3.6814,0 -5.93835,2.16444 -2.23845,2.16445 -2.23845,5.71636 0,3.53342 2.23845,5.71637 2.25695,2.16444 5.93835,2.16444 z"
       id="path421"
       style="font-weight:bold;font-size:50.8px;font-family:'Gill Sans MT';-inkscape-font-specification:'Gill Sans MT, Bold';stroke-width:0.197328" />
    <path
       d="m 173.33292,166.56208 -10.10076,12.46869 11.21073,13.37518 h -8.34329 l -7.01133,-8.52829 -6.88183,8.52829 h -8.23231 l 10.95174,-13.37518 -10.34125,-12.46869 h 8.3433 l 6.16035,7.62182 6.06785,-7.62182 z"
       id="path423"
       style="font-weight:bold;font-size:50.8px;font-family:'Gill Sans MT';-inkscape-font-specification:'Gill Sans MT, Bold';stroke-width:0.197328" />
  </g>
</svg>
